<svg width="202" height="125" viewBox="0 0 202 125" fill="none" xmlns="http://www.w3.org/2000/svg">
<path d="M72.2103 66.7842C79.39 66.7842 85.3986 60.8349 83.2583 53.9817C82.8709 52.7415 82.4268 51.5176 81.9268 50.3141C79.7594 45.0975 76.5841 40.3669 72.5854 36.3975C68.5867 32.4281 63.8445 29.2991 58.6345 27.1923C53.4245 25.0855 47.8506 24.0431 42.2371 24.1256C36.6235 24.2082 31.0822 25.414 25.9355 27.673C20.7887 29.932 16.1392 33.1991 12.2572 37.2844C8.3752 41.3696 5.33827 46.1915 3.32296 51.4696C2.85857 52.6858 2.45057 53.9207 2.09962 55.1702C0.157608 62.0845 6.33917 67.858 13.5179 67.6469L42.8551 66.7842H72.2103Z" fill="#44C4FC"/>
<path d="M143.647 51.3583C149.169 51.3583 153.747 46.8376 152.65 41.4247C151.99 38.1693 151.006 34.9772 149.708 31.8957C147.107 25.7253 143.296 20.1187 138.491 15.3961C133.686 10.6734 127.982 6.92723 121.704 4.37136C115.426 1.81549 108.698 0.5 101.902 0.5C95.1073 0.5 88.3787 1.81549 82.1008 4.37136C75.8229 6.92723 70.1186 10.6734 65.3137 15.3961C60.5088 20.1187 56.6974 25.7253 54.097 31.8957C52.7983 34.9772 51.8144 38.1693 51.1548 41.4248C50.058 46.8376 54.6354 51.3583 60.1582 51.3583L101.902 51.3583H143.647Z" fill="#44C4FC"/>
<path d="M190.535 75.912C194.936 75.9428 198.686 72.3629 198.036 68.0082C196.697 59.0486 192.623 50.7022 186.264 44.1385C178.052 35.6621 166.701 30.8531 154.708 30.7693C142.715 30.6856 131.063 35.3339 122.316 43.6917C115.55 50.1557 110.95 58.4289 109.038 67.353C108.104 71.7068 111.647 75.3609 116.062 75.3918L153.28 75.6518L190.535 75.912Z" fill="#3DB2E6"/>
<path d="M122.349 66.784C122.349 62.1045 118.535 57.5373 111.419 53.6974C104.303 49.8574 94.2282 46.929 82.55 45.3064C70.8719 43.6838 58.1513 43.4449 46.101 44.6219C34.0506 45.7988 23.249 48.3352 15.1503 51.8894C7.05157 55.4437 2.04461 59.8452 0.803464 64.5014C-0.437678 69.1576 2.14659 73.845 8.20836 77.9324C14.2701 82.0199 23.5184 85.3112 34.708 87.3632C45.8976 89.4153 58.4914 90.1296 70.7939 89.4099L61.4246 66.784H122.349Z" fill="#44C4FC"/>
<ellipse cx="129.443" cy="41.7169" rx="22.5338" ry="23.8624" fill="#44C4FC"/>
<rect width="72.2095" height="28.269" rx="14.1345" transform="matrix(0.999982 -0.00594435 0.00445419 0.99999 126.522 61.1875)" fill="#3DB2E6"/>
<rect x="0.5" y="43.8857" width="162.744" height="45.7966" rx="22.8983" fill="#44C4FC"/>
</svg>
